# 
# Generated by Sweet Home 3D - Tue Mar 19 15:13:52 EDT 2024
# http://www.sweethome3d.com/
# 
mtllib 97Newton.mtl
g border_1
usemtl border
v 729.58124 249.555 217.97481
v 730.23645 249.555 217.77614
v 730.9178 249.555 217.70898
v 731.5991 249.555 217.77614
v 732.25433 249.555 217.97481
v 732.8581 249.555 218.2976
v 733.3874 249.555 218.73189
v 733.82166 249.555 219.26114
v 728.4482 249.555 218.73189
v 728.9775 249.555 218.2976
v 728.0139 249.555 219.26114
v 727.6911 249.555 219.86494
v 727.49243 249.555 220.52014
v 727.4253 249.555 221.20148
v 728.47107 249.555 220.71483
v 728.42316 249.555 221.20148
v 728.61304 249.555 220.24683
v 728.84357 249.555 219.81555
v 729.15375 249.555 219.43747
v 729.53186 249.555 219.12723
v 729.96313 249.555 218.89673
v 730.43115 249.555 218.75473
v 730.9178 249.555 218.70683
v 731.4044 249.555 218.75473
v 731.87244 249.555 218.89673
v 734.1445 249.555 219.86494
v 732.3037 249.555 219.12723
v 734.34314 249.555 220.52014
v 732.6818 249.555 219.43747
v 734.4103 249.555 221.20148
v 732.992 249.555 219.81555
v 733.22253 249.555 220.24683
v 733.3645 249.555 220.71483
v 733.4124 249.555 221.20148
v 732.8581 249.8725 218.2976
v 732.25433 249.8725 217.97481
v 731.5991 249.8725 217.77614
v 730.9178 249.8725 217.70898
v 730.23645 249.8725 217.77614
v 729.58124 249.8725 217.97481
v 728.9775 249.8725 218.2976
v 728.4482 249.8725 218.73189
v 728.0139 249.8725 219.26114
v 727.6911 249.8725 219.86494
v 727.49243 249.8725 220.52014
v 727.4253 249.8725 221.20148
v 727.49243 249.8725 221.88281
v 727.6911 249.8725 222.53801
v 728.0139 249.8725 223.14182
v 728.4482 249.8725 223.67107
v 728.9775 249.8725 224.10535
v 729.58124 249.8725 224.42815
v 730.23645 249.8725 224.62682
v 730.9178 249.8725 224.69397
v 731.5991 249.8725 224.62682
v 732.25433 249.8725 224.42815
v 732.8581 249.8725 224.10535
v 733.3874 249.8725 223.67107
v 733.82166 249.8725 223.14182
v 734.1445 249.8725 222.53801
v 734.34314 249.8725 221.88281
v 734.4103 249.8725 221.20148
v 734.34314 249.8725 220.52014
v 734.1445 249.8725 219.86494
v 733.82166 249.8725 219.26114
v 733.3874 249.8725 218.73189
v 727.6911 249.555 222.53801
v 727.49243 249.555 221.88281
v 728.47107 249.555 221.68813
v 728.61304 249.555 222.15613
v 728.84357 249.555 222.5874
v 729.15375 249.555 222.96548
v 729.53186 249.555 223.27573
v 729.96313 249.555 223.50623
v 728.0139 249.555 223.14182
v 730.43115 249.555 223.64822
v 728.4482 249.555 223.67107
v 730.9178 249.555 223.69612
v 728.9775 249.555 224.10535
v 731.4044 249.555 223.64822
v 729.58124 249.555 224.42815
v 731.87244 249.555 223.50623
v 730.23645 249.555 224.62682
v 732.3037 249.555 223.27573
v 730.9178 249.555 224.69397
v 732.6818 249.555 222.96548
v 731.5991 249.555 224.62682
v 732.992 249.555 222.5874
v 732.25433 249.555 224.42815
v 733.22253 249.555 222.15613
v 732.8581 249.555 224.10535
v 733.3645 249.555 221.68813
v 733.3874 249.555 223.67107
v 734.34314 249.555 221.88281
v 734.1445 249.555 222.53801
v 733.82166 249.555 223.14182
vn 0.0 -1.0 0.0
vn 0.0 1.0 0.0
f 1//1 2//1 3//1
f 1//1 3//1 4//1
f 1//1 4//1 5//1
f 1//1 5//1 6//1
f 1//1 6//1 7//1
f 1//1 7//1 8//1
f 9//1 10//1 1//1
f 11//1 9//1 1//1
f 12//1 11//1 1//1
f 13//1 12//1 1//1
f 14//1 13//1 1//1
f 15//1 16//1 14//1
f 17//1 15//1 14//1
f 17//1 14//1 1//1
f 18//1 17//1 1//1
f 19//1 18//1 1//1
f 20//1 19//1 1//1
f 21//1 20//1 1//1
f 22//1 21//1 1//1
f 23//1 22//1 1//1
f 24//1 23//1 1//1
f 24//1 1//1 8//1
f 25//1 24//1 8//1
f 25//1 8//1 26//1
f 27//1 25//1 26//1
f 27//1 26//1 28//1
f 29//1 27//1 28//1
f 29//1 28//1 30//1
f 31//1 29//1 30//1
f 32//1 31//1 30//1
f 33//1 32//1 30//1
f 33//1 30//1 34//1
f 35//2 36//2 37//2
f 35//2 37//2 38//2
f 35//2 38//2 39//2
f 35//2 39//2 40//2
f 35//2 40//2 41//2
f 35//2 41//2 42//2
f 35//2 42//2 43//2
f 35//2 43//2 44//2
f 35//2 44//2 45//2
f 35//2 45//2 46//2
f 35//2 46//2 47//2
f 35//2 47//2 48//2
f 35//2 48//2 49//2
f 35//2 49//2 50//2
f 35//2 50//2 51//2
f 35//2 51//2 52//2
f 35//2 52//2 53//2
f 35//2 53//2 54//2
f 35//2 54//2 55//2
f 35//2 55//2 56//2
f 35//2 56//2 57//2
f 35//2 57//2 58//2
f 35//2 58//2 59//2
f 35//2 59//2 60//2
f 35//2 60//2 61//2
f 35//2 61//2 62//2
f 35//2 62//2 63//2
f 35//2 63//2 64//2
f 35//2 64//2 65//2
f 35//2 65//2 66//2
f 67//1 68//1 14//1
f 67//1 14//1 16//1
f 67//1 16//1 69//1
f 67//1 69//1 70//1
f 67//1 70//1 71//1
f 67//1 71//1 72//1
f 67//1 72//1 73//1
f 67//1 73//1 74//1
f 75//1 67//1 74//1
f 75//1 74//1 76//1
f 77//1 75//1 76//1
f 77//1 76//1 78//1
f 79//1 77//1 78//1
f 79//1 78//1 80//1
f 81//1 79//1 80//1
f 81//1 80//1 82//1
f 83//1 81//1 82//1
f 83//1 82//1 84//1
f 85//1 83//1 84//1
f 85//1 84//1 86//1
f 87//1 85//1 86//1
f 87//1 86//1 88//1
f 89//1 87//1 88//1
f 89//1 88//1 90//1
f 91//1 89//1 90//1
f 91//1 90//1 92//1
f 93//1 91//1 92//1
f 93//1 92//1 34//1
f 93//1 34//1 30//1
f 93//1 30//1 94//1
f 93//1 94//1 95//1
f 93//1 95//1 96//1
g border_3_2
usemtl border
v 733.3645 249.8725 221.68813
v 733.4124 249.8725 221.20148
v 732.6818 249.8725 222.96548
v 732.992 249.8725 222.5874
v 733.22253 249.8725 222.15613
v 728.47107 249.8725 220.71483
v 728.42316 249.8725 221.20148
v 733.3645 249.8725 220.71483
v 733.22253 249.8725 220.24683
v 732.992 249.8725 219.81555
v 732.6818 249.8725 219.43747
v 730.9178 249.8725 218.70683
v 730.43115 249.8725 218.75473
v 730.43115 249.8725 223.64822
v 730.9178 249.8725 223.69612
v 728.84357 249.8725 219.81555
v 728.61304 249.8725 220.24683
v 731.4044 249.8725 223.64822
v 729.96313 249.8725 218.89673
v 732.3037 249.8725 219.12723
v 729.53186 249.8725 223.27573
v 729.96313 249.8725 223.50623
v 731.87244 249.8725 218.89673
v 732.3037 249.8725 223.27573
v 729.53186 249.8725 219.12723
v 729.15375 249.8725 219.43747
v 731.87244 249.8725 223.50623
v 729.15375 249.8725 222.96548
v 728.61304 249.8725 222.15613
v 728.84357 249.8725 222.5874
v 731.4044 249.8725 218.75473
v 728.47107 249.8725 221.68813
vn 0.0 0.0 -1.0
vn 0.19507304 0.0 -0.9807887
vn 0.3826735 0.0 -0.9238836
vn 0.55556494 0.0 -0.83147323
vn 0.70710677 0.0 -0.70710677
vn 0.83147323 0.0 -0.55556494
vn 0.9238836 0.0 -0.3826735
vn 0.9807887 0.0 -0.19507304
vn 1.0 0.0 0.0
vn 0.9807887 0.0 0.19507304
vn 0.9238836 0.0 0.3826735
vn 0.83147323 0.0 0.55556494
vn 0.70710677 0.0 0.70710677
vn 0.55556494 0.0 0.83147323
vn 0.3826735 0.0 0.9238836
vn 0.19507304 0.0 0.9807887
vn 0.0 0.0 1.0
vn -0.19507304 0.0 0.9807887
vn -0.3826735 0.0 0.9238836
vn -0.55556494 0.0 0.83147323
vn -0.70710677 0.0 0.70710677
vn -0.83147323 0.0 0.55556494
vn -0.9238836 0.0 0.3826735
vn -0.9807887 0.0 0.19507304
vn -1.0 0.0 0.0
vn -0.9807887 0.0 -0.19507304
vn -0.9238836 0.0 -0.3826735
vn -0.83147323 0.0 -0.55556494
vn -0.70710677 0.0 -0.70710677
vn -0.55556494 0.0 -0.83147323
vn -0.3826735 0.0 -0.9238836
vn -0.19507304 0.0 -0.9807887
vn -0.98078626 0.0 -0.1950853
vn -0.8315016 0.0 -0.5555223
vn -0.9238736 0.0 -0.38269764
vn 0.98078626 0.0 0.1950853
vn -0.98078626 0.0 0.1950853
vn -0.9238736 0.0 0.38269764
vn -0.8315016 0.0 0.5555223
vn 0.1950853 0.0 0.98078626
vn 0.1950853 0.0 -0.98078626
vn 0.8315016 0.0 0.5555223
vn 0.9238736 0.0 0.38269764
vn -0.1950853 0.0 -0.98078626
vn 0.38269764 0.0 0.9238736
vn -0.5555223 0.0 0.8315016
vn 0.5555223 0.0 -0.8315016
vn 0.38269764 0.0 -0.9238736
vn -0.38269764 0.0 0.9238736
vn -0.5555223 0.0 -0.8315016
vn 0.5555223 0.0 0.8315016
vn -0.38269764 0.0 -0.9238736
vn 0.9238736 0.0 -0.38269764
vn 0.8315016 0.0 -0.5555223
vn -0.1950853 0.0 0.98078626
vn 0.98078626 0.0 -0.1950853
f 3//3 38//3 37//4
f 3//3 37//4 4//4
f 4//4 37//4 36//5
f 4//4 36//5 5//5
f 5//5 36//5 35//6
f 5//5 35//6 6//6
f 6//6 35//6 66//7
f 6//6 66//7 7//7
f 7//7 66//7 65//8
f 7//7 65//8 8//8
f 8//8 65//8 64//9
f 8//8 64//9 26//9
f 26//9 64//9 63//10
f 26//9 63//10 28//10
f 28//10 63//10 62//11
f 28//10 62//11 30//11
f 30//11 62//11 61//12
f 30//11 61//12 94//12
f 94//12 61//12 60//13
f 94//12 60//13 95//13
f 95//13 60//13 59//14
f 95//13 59//14 96//14
f 96//14 59//14 58//15
f 96//14 58//15 93//15
f 93//15 58//15 57//16
f 93//15 57//16 91//16
f 91//16 57//16 56//17
f 91//16 56//17 89//17
f 89//17 56//17 55//18
f 89//17 55//18 87//18
f 87//18 55//18 54//19
f 87//18 54//19 85//19
f 85//19 54//19 53//20
f 85//19 53//20 83//20
f 83//20 53//20 52//21
f 83//20 52//21 81//21
f 81//21 52//21 51//22
f 81//21 51//22 79//22
f 79//22 51//22 50//23
f 79//22 50//23 77//23
f 77//23 50//23 49//24
f 77//23 49//24 75//24
f 75//24 49//24 48//25
f 75//24 48//25 67//25
f 67//25 48//25 47//26
f 67//25 47//26 68//26
f 68//26 47//26 46//27
f 68//26 46//27 14//27
f 14//27 46//27 45//28
f 14//27 45//28 13//28
f 13//28 45//28 44//29
f 13//28 44//29 12//29
f 12//29 44//29 43//30
f 12//29 43//30 11//30
f 11//30 43//30 42//31
f 11//30 42//31 9//31
f 9//31 42//31 41//32
f 9//31 41//32 10//32
f 10//32 41//32 40//33
f 10//32 40//33 1//33
f 1//33 40//33 39//34
f 1//33 39//34 2//34
f 2//34 39//34 38//3
f 2//34 38//3 3//3
f 92//35 97//35 98//27
f 92//35 98//27 34//27
f 86//31 99//31 100//36
f 86//31 100//36 88//36
f 88//36 100//36 101//37
f 88//36 101//37 90//37
f 15//38 102//38 103//11
f 15//38 103//11 16//11
f 33//39 104//39 105//40
f 33//39 105//40 32//40
f 34//27 98//27 104//39
f 34//27 104//39 33//39
f 31//41 106//41 107//23
f 31//41 107//23 29//23
f 23//19 108//19 109//42
f 23//19 109//42 22//42
f 76//43 110//43 111//3
f 76//43 111//3 78//3
f 18//44 112//44 113//45
f 18//44 113//45 17//45
f 78//3 111//3 114//46
f 78//3 114//46 80//46
f 22//42 109//42 115//47
f 22//42 115//47 21//47
f 29//23 107//23 116//48
f 29//23 116//48 27//48
f 73//49 117//49 118//50
f 73//49 118//50 74//50
f 27//48 116//48 119//51
f 27//48 119//51 25//51
f 84//52 120//52 99//31
f 84//52 99//31 86//31
f 20//53 121//53 122//15
f 20//53 122//15 19//15
f 17//45 113//45 102//38
f 17//45 102//38 15//38
f 82//54 123//54 120//52
f 82//54 120//52 84//52
f 72//7 124//7 117//49
f 72//7 117//49 73//49
f 70//55 125//55 126//56
f 70//55 126//56 71//56
f 24//57 127//57 108//19
f 24//57 108//19 23//19
f 32//40 105//40 106//41
f 32//40 106//41 31//41
f 16//11 103//11 128//58
f 16//11 128//58 69//58
f 90//37 101//37 97//35
f 90//37 97//35 92//35
f 74//50 118//50 110//43
f 74//50 110//43 76//43
f 21//47 115//47 121//53
f 21//47 121//53 20//53
f 25//51 119//51 127//57
f 25//51 127//57 24//57
f 80//46 114//46 123//54
f 80//46 123//54 82//54
f 69//58 128//58 125//55
f 69//58 125//55 70//55
f 19//15 122//15 112//44
f 19//15 112//44 18//44
f 71//56 126//56 124//7
f 71//56 124//7 72//7
g spot_3
usemtl spot
v 729.53186 249.87143 219.12723
v 729.96313 249.87143 218.89673
v 730.43115 249.87143 218.75473
v 730.9178 249.87143 218.70683
v 731.4044 249.87143 218.75473
v 731.87244 249.87143 218.89673
v 732.3037 249.87143 219.12723
v 732.6818 249.87143 219.43747
v 732.992 249.87143 219.81555
v 733.22253 249.87143 220.24683
v 733.3645 249.87143 220.71483
v 733.4124 249.87143 221.20148
v 733.3645 249.87143 221.68813
v 733.22253 249.87143 222.15613
v 732.992 249.87143 222.5874
v 732.6818 249.87143 222.96548
v 732.3037 249.87143 223.27573
v 731.87244 249.87143 223.50623
v 731.4044 249.87143 223.64822
v 730.9178 249.87143 223.69612
v 730.43115 249.87143 223.64822
v 729.96313 249.87143 223.50623
v 729.53186 249.87143 223.27573
v 729.15375 249.87143 222.96548
v 728.84357 249.87143 222.5874
v 728.61304 249.87143 222.15613
v 728.47107 249.87143 221.68813
v 728.42316 249.87143 221.20148
v 728.47107 249.87143 220.71483
v 728.61304 249.87143 220.24683
v 728.84357 249.87143 219.81555
v 729.15375 249.87143 219.43747
vt 0.22294 0.91465 0
vt 0.30916 0.96074 0
vt 0.40271 0.98912 0
vt 0.5 0.9987 0
vt 0.59729 0.98912 0
vt 0.69084 0.96074 0
vt 0.77706 0.91465 0
vt 0.85263 0.85263 0
vt 0.91465 0.77706 0
vt 0.96074 0.69085 0
vt 0.98912 0.59729 0
vt 0.9987 0.5 0
vt 0.98912 0.40271 0
vt 0.96074 0.30916 0
vt 0.91465 0.22294 0
vt 0.85263 0.14737 0
vt 0.77706 0.08535 0
vt 0.69084 0.03926 0
vt 0.59729 0.01088 0
vt 0.5 0.0013 0
vt 0.40271 0.01088 0
vt 0.30916 0.03926 0
vt 0.22294 0.08535 0
vt 0.14737 0.14737 0
vt 0.08535 0.22294 0
vt 0.03926 0.30916 0
vt 0.01088 0.40271 0
vt 0.0013 0.5 0
vt 0.01088 0.59729 0
vt 0.03926 0.69084 0
vt 0.08535 0.77706 0
vt 0.14737 0.85263 0
f 129/1/1 130/2/1 131/3/1
f 129/1/1 131/3/1 132/4/1
f 129/1/1 132/4/1 133/5/1
f 129/1/1 133/5/1 134/6/1
f 129/1/1 134/6/1 135/7/1
f 129/1/1 135/7/1 136/8/1
f 129/1/1 136/8/1 137/9/1
f 129/1/1 137/9/1 138/10/1
f 129/1/1 138/10/1 139/11/1
f 129/1/1 139/11/1 140/12/1
f 129/1/1 140/12/1 141/13/1
f 129/1/1 141/13/1 142/14/1
f 129/1/1 142/14/1 143/15/1
f 129/1/1 143/15/1 144/16/1
f 129/1/1 144/16/1 145/17/1
f 129/1/1 145/17/1 146/18/1
f 129/1/1 146/18/1 147/19/1
f 129/1/1 147/19/1 148/20/1
f 129/1/1 148/20/1 149/21/1
f 129/1/1 149/21/1 150/22/1
f 129/1/1 150/22/1 151/23/1
f 129/1/1 151/23/1 152/24/1
f 129/1/1 152/24/1 153/25/1
f 129/1/1 153/25/1 154/26/1
f 129/1/1 154/26/1 155/27/1
f 129/1/1 155/27/1 156/28/1
f 129/1/1 156/28/1 157/29/1
f 129/1/1 157/29/1 158/30/1
f 129/1/1 158/30/1 159/31/1
f 129/1/1 159/31/1 160/32/1
